<svg width="120" height="84" viewBox="0 0 120 84" fill="none" xmlns="http://www.w3.org/2000/svg">
<path d="M119.948 58.8915C119.604 56.0977 118.188 53.6743 115.73 51.6797C115.699 51.6425 115.665 51.608 115.629 51.5766L115.505 51.4875L115.465 51.4594L114.159 50.5219L114.115 50.4891L113.948 50.3719C113.887 50.3363 113.822 50.3087 113.754 50.2899C109.624 47.8313 102.788 46.1086 92.3274 49.8C89.8313 45.6 89.5477 42.2344 91.2188 37.0782C91.5164 36.1805 91.2399 35.5875 90.3492 35.2032C88.5586 34.4415 86.107 34.8305 84.368 35.2899C83.557 35.5008 83.0695 35.9602 82.9149 36.6563C81.8133 41.8125 78.6117 46.5235 75.5156 51.0704L75.3328 51.3375C73.425 47.2922 73.8211 44.1586 75.15 40.2329C75.4149 39.45 75.2063 38.9297 74.4727 38.5407C72.4242 37.4836 69.3516 38.2102 68.1281 38.5711C66.5766 39.0235 64.9125 43.2164 63.0539 48.2368C62.5852 49.5 62.182 50.5805 61.9406 51.0844C61.3664 52.2563 60.818 53.5922 60.2367 55.0102C58.9242 58.2188 57.4453 61.8305 55.3313 64.0993C54.5625 62.4 55.7719 59.7211 56.9461 57.1219C58.3359 54.0493 59.6484 51.1454 58.1367 49.2914C57.8977 48.9983 57.6011 48.7573 57.2653 48.5832C56.9296 48.409 56.5617 48.3055 56.1844 48.279C55.6921 48.2415 55.198 48.3218 54.743 48.5133C54.9 47.1891 54.907 46.1438 54.5203 44.8805C53.9672 43.0782 52.5305 42.068 50.5524 42.1219C46.0477 42.2532 42.2367 45.6094 39.8297 48.4032C38.2266 50.2782 34.6734 51.7079 31.5539 52.9618C30.3211 53.4844 29.1492 53.9532 28.1719 54.4219C26.6133 53.1047 24.6328 51.7758 22.5469 50.3719C16.6875 46.4391 10.0477 41.979 9.81798 35.9321C9.48985 27 19.6617 20.6649 28.5399 16.1438C35.2688 12.7219 41.1188 10.4532 46.425 9.21332C53.8781 7.47192 60.1734 7.82348 65.1328 10.254C67.8469 11.5829 69.1172 14.4727 68.3109 17.4446C66.2016 25.1672 57.4617 30.4594 49.9875 32.8407C45.4852 34.275 41.6531 34.875 38.2688 34.6782C34.0266 34.4321 30.5625 32.3039 29.0813 31.3969C28.8439 31.2348 28.593 31.0937 28.3313 30.975L28.2633 30.9586C28.1292 30.9253 27.9884 30.9295 27.8565 30.9708C27.7247 31.0122 27.6067 31.089 27.5156 31.193C27.2109 31.5563 27.3188 32.1305 27.4289 32.4211C28.8703 36.1875 31.8469 38.5665 36.2742 39.4922C37.7232 39.7824 39.1981 39.923 40.6758 39.9118C51.0375 39.9118 64.2586 33.9375 69.1149 29.018C72.4266 25.6665 74.8383 22.2211 75.8367 16.2797C76.8797 10.0571 72.6609 5.73286 68.3625 3.74067C57.9164 -1.08043 46.0523 0.825044 37.9383 3.27192C28.4461 6.13364 18.6258 11.3368 10.9992 17.5524C1.5961 25.2094 -1.80233 32.318 0.892978 38.7047C3.66095 45.2508 10.4109 49.3454 16.9383 53.3063C19.0477 54.5836 21.0539 55.8 22.8609 57.0563C22.3172 57.3211 21.7617 57.5907 21.1969 57.8602C15.7172 60.5157 9.50157 63.5039 6.05392 68.4422C3.55079 72.0399 3.08204 75.6211 4.66173 79.0875C5.50548 80.9321 7.00548 82.1836 9.08907 82.8071C10.1729 83.1142 11.2954 83.2633 12.4219 83.25C16.4789 83.25 20.9438 81.6094 23.3742 80.093C27.668 77.3977 30.45 73.779 31.6453 69.3375C32.7094 65.386 32.4539 61.4602 30.907 57.9563L36.1688 55.3032C33.6305 63.7407 35.5758 68.7797 37.7133 71.5594C38.5008 72.5836 39.9211 73.2 41.5078 73.2282C43.0945 73.2563 44.5547 72.6586 45.3797 71.6414C46.9406 69.7079 48.0938 67.4461 49.1555 65.1844C49.0992 66.661 49.1695 68.1563 49.6734 69.4243C50.1258 70.5657 50.8711 71.3227 51.832 71.6133C52.8539 71.925 54.0516 71.6625 55.2047 70.875C60.4008 67.3196 63.9539 58.786 66.8086 51.9258C67.2141 50.9508 67.6031 50.0133 67.9805 49.1368C68.6867 51.6643 69.6692 54.1064 70.9102 56.4188C71.1867 56.9204 71.1633 57.1407 70.7883 57.5532C70.2234 58.1719 69.436 58.9196 68.6016 59.7118C66.075 62.1094 62.9297 65.1024 62.5078 67.7344C62.3438 68.7891 63.0703 69.75 64.1977 69.968C67.5891 70.643 71.6742 69.6563 75.1289 67.3313C78.2695 65.2219 79.4508 62.2805 78.6445 58.6149C77.8641 55.0852 79.6453 50.7024 83.9391 45.5789C84.6422 48.5157 85.5797 50.8899 86.8735 52.9688L86.8383 52.9969C83.7117 55.7274 79.4274 59.4657 80.093 64.0008C80.1488 64.4321 80.294 64.8471 80.5191 65.2191C80.7443 65.5912 81.0446 65.9122 81.4008 66.1618C81.7815 66.4188 82.2111 66.5943 82.6629 66.6774C83.1146 66.7605 83.5786 66.7493 84.0258 66.6446C88.1203 65.7844 91.2024 64.0524 93.443 61.3547C95.6836 58.6571 94.8656 55.6665 94.111 53.3461C99.9703 51.7571 105.188 51.7969 110.072 53.4633C112.814 54.4008 114.78 55.9407 115.915 58.0664C117.342 60.7407 116.571 63.2086 113.738 65.0157C112.868 65.5711 112.448 65.911 112.423 66.3399C112.417 66.4394 112.435 66.5389 112.476 66.6298C112.517 66.7208 112.579 66.8006 112.657 66.8625C112.985 67.1321 113.998 67.6008 116.288 66.1594C118.397 64.8352 119.634 63.0328 119.951 60.7688C120.014 60.1446 120.014 59.5155 119.948 58.8915ZM26.2617 64.7649L26.2383 65.0649C25.8727 68.4961 24.1289 71.4868 21.0469 73.9711C19.1109 75.5321 17.0086 76.4907 15.1289 76.6735C13.8164 76.8 12.8625 76.6219 12.2953 76.1414C11.8711 75.7829 11.6438 75.2461 11.5922 74.5008C11.2078 68.529 20.5734 62.5946 25.8445 60.6422C26.2207 61.982 26.3619 63.3769 26.2617 64.7649ZM50.25 47.9227C49.3828 52.8657 46.8539 62.1961 42.8789 65.8172C42.6891 65.9907 42.5297 66.0516 42.457 66.0352C42.3844 66.0188 42.3281 65.9321 42.2695 65.8008C40.943 62.7258 41.4328 57.5321 43.4414 53.4516C44.9859 50.3063 47.1914 48.2227 49.657 47.5922C49.7594 47.564 49.8649 47.549 49.9711 47.5477C50.0541 47.5419 50.1367 47.5642 50.2055 47.611C50.2345 47.6569 50.2535 47.7083 50.2611 47.7621C50.2688 47.8158 50.265 47.8705 50.25 47.9227ZM69.818 65.9414C69.0703 66.7219 68.0461 66.6164 68.2875 66.3305L72.0938 62.2899C71.7867 63.6797 70.8797 64.8305 69.818 65.9414ZM85.6078 62.4469C85.2458 62.6253 84.8542 62.7357 84.4524 62.7727C84.3445 60.6469 86.4047 58.254 88.4367 56.6579C88.9828 58.875 87.8649 61.2188 85.6078 62.4469Z" fill="white"/>
</svg>
